<?xml version="1.0" encoding="utf-8"?>
<!-- Generator: Adobe Illustrator 23.0.2, SVG Export Plug-In . SVG Version: 6.00 Build 0)  -->
<svg version="1.1" id="Calque_1" xmlns="http://www.w3.org/2000/svg" xmlns:xlink="http://www.w3.org/1999/xlink" x="0px" y="0px"
	 viewBox="0 0 128 128" style="enable-background:new 0 0 128 128;" xml:space="preserve">
<style type="text/css">
	.st0{fill:#743E8C;}
	.st1{fill:#633679;}
	.st2{fill:#FFFFFF;}
</style>
<g id="Bulle_Linova_violet_1_">
	<g>
		<g>
			<defs>
				<path id="SVGID_1_" d="M68.28,100h-7.66C49.23,100,40,90.77,40,79.38V43.53V23h20.72h7.66C79.77,23,89,32.23,89,43.62v35.85V100
					H68.28z"/>
			</defs>
			<clipPath id="SVGID_2_">
				<use xlink:href="#SVGID_1_"  style="overflow:visible;"/>
			</clipPath>
		</g>
		<path class="st0" d="M64,128C28.65,128,0,99.35,0,64S28.65,0,64,0s64,28.65,64,64v64H64z"/>
		<g>
			<path class="st1" d="M128,73.91c-3.06-3.23-5.48-5.72-6.17-6.37c-0.25-0.26-0.5-0.51-0.76-0.76c-0.25-0.26-0.5-0.52-0.76-0.77
				c-0.25-0.26-0.5-0.51-0.76-0.76c-0.25-0.26-0.5-0.51-0.76-0.76c-0.25-0.26-0.5-0.52-0.76-0.76c-0.25-0.26-0.5-0.52-0.76-0.76
				c-0.25-0.26-0.5-0.51-0.76-0.76c-0.25-0.26-0.5-0.51-0.76-0.76c-0.25-0.26-0.5-0.51-0.75-0.76c-0.25-0.26-0.5-0.52-0.77-0.77
				c-0.25-0.26-0.49-0.51-0.75-0.76c-0.25-0.26-0.51-0.52-0.77-0.77c-0.24-0.26-0.49-0.5-0.74-0.75c-0.25-0.27-0.51-0.52-0.77-0.77
				c-0.24-0.26-0.49-0.51-0.75-0.75c-0.25-0.26-0.5-0.52-0.76-0.76c-0.25-0.27-0.5-0.52-0.77-0.77c-0.24-0.26-0.49-0.51-0.75-0.75
				c-0.25-0.26-0.5-0.52-0.76-0.77c-0.25-0.26-0.5-0.51-0.76-0.76c-0.25-0.26-0.5-0.52-0.76-0.76c-0.25-0.26-0.5-0.51-0.76-0.76
				c-0.25-0.26-0.5-0.52-0.76-0.76c-0.25-0.26-0.5-0.51-0.76-0.76c-0.25-0.26-0.5-0.52-0.76-0.76c-0.24-0.26-0.49-0.51-0.75-0.76
				c-0.25-0.26-0.5-0.51-0.76-0.76c-0.25-0.26-0.5-0.52-0.76-0.77c-0.25-0.26-0.5-0.51-0.76-0.76c-0.25-0.26-0.5-0.51-0.76-0.76
				c-0.25-0.26-0.5-0.52-0.77-0.77c-0.24-0.26-0.49-0.51-0.75-0.75c-0.25-0.27-0.51-0.52-0.77-0.77c-0.24-0.26-0.49-0.51-0.75-0.75
				c-0.25-0.26-0.5-0.52-0.76-0.77c-0.25-0.26-0.5-0.51-0.76-0.76c-0.25-0.26-0.5-0.52-0.76-0.76c-0.25-0.26-0.5-0.52-0.76-0.76
				c-0.24-0.26-0.49-0.51-0.75-0.75c-0.25-0.27-0.51-0.52-0.77-0.78c-0.24-0.26-0.49-0.51-0.74-0.75c-0.25-0.26-0.5-0.52-0.77-0.77
				c-0.25-0.26-0.5-0.51-0.76-0.76c-0.25-0.26-0.5-0.52-0.76-0.76c-0.24-0.26-0.49-0.51-0.75-0.76c-0.25-0.26-0.5-0.52-0.76-0.76
				c-0.25-0.26-0.5-0.52-0.76-0.76c-0.25-0.26-0.5-0.52-0.76-0.76c-0.25-0.26-0.5-0.51-0.76-0.76c-0.25-0.26-0.5-0.51-0.76-0.76
				C80.17,25.48,74.89,23,69.03,23h-7.49H41v20.63v36.1c0,5.89,2.47,11.19,6.41,14.95c0.25,0.26,0.5,0.52,0.77,0.77
				c0.24,0.26,0.49,0.51,0.75,0.75c0.25,0.26,0.51,0.52,0.77,0.77c0.24,0.25,0.49,0.5,0.74,0.75c0.25,0.27,0.5,0.52,0.77,0.77
				c0.25,0.26,0.49,0.51,0.75,0.76c0.25,0.26,0.5,0.52,0.76,0.76c0.25,0.26,0.5,0.52,0.76,0.76c0.25,0.26,0.49,0.51,0.75,0.76
				c0.25,0.26,0.5,0.52,0.76,0.77c0.25,0.26,0.49,0.51,0.75,0.76c0.25,0.26,0.5,0.52,0.76,0.76c0.25,0.26,0.49,0.51,0.75,0.75
				c0.25,0.26,0.5,0.51,0.76,0.76c0.25,0.27,0.51,0.53,0.77,0.78c0.24,0.26,0.49,0.51,0.75,0.75c0.25,0.26,0.5,0.51,0.76,0.76
				c0.25,0.26,0.5,0.51,0.76,0.76c0.25,0.26,0.5,0.52,0.76,0.76c0.25,0.26,0.5,0.51,0.76,0.76c0.25,0.26,0.49,0.51,0.75,0.76
				c0.25,0.27,0.51,0.52,0.77,0.77c0.24,0.26,0.49,0.51,0.75,0.75c0.25,0.26,0.51,0.52,0.77,0.77c0.24,0.26,0.49,0.51,0.75,0.75
				c0.25,0.26,0.5,0.52,0.76,0.77c0.25,0.26,0.5,0.51,0.76,0.76c0.25,0.26,0.5,0.52,0.76,0.76c0.25,0.26,0.5,0.52,0.76,0.76
				c0.25,0.26,0.5,0.52,0.76,0.76c0.24,0.26,0.49,0.51,0.75,0.76c0.25,0.26,0.5,0.51,0.76,0.76c0.25,0.26,0.5,0.52,0.76,0.76
				c0.24,0.26,0.5,0.51,0.75,0.76c0.25,0.26,0.5,0.51,0.76,0.76c0.25,0.27,0.51,0.52,0.77,0.77c0.24,0.26,0.49,0.51,0.75,0.76
				c0.25,0.26,0.5,0.52,0.76,0.76c0.25,0.26,0.5,0.51,0.76,0.76c0.25,0.26,0.5,0.52,0.77,0.77c0.24,0.26,0.49,0.51,0.75,0.75
				c0.02,0.03,0.82,0.83,2.07,2.08H128V73.91z"/>
		</g>
		<g>
			<g>
				<path class="st2" d="M68.28,100h-7.66C49.23,100,40,90.77,40,79.38V43.53V23h20.72h7.66C79.77,23,89,32.23,89,43.62v35.85V100
					H68.28z"/>
			</g>
			<path class="st1" d="M76.58,88H64.5c-2.62,0-4.66-0.39-6.09-1.17C55.48,85.55,54,81.93,54,76.09V34.73
				c-0.37-3.03-1.8-4.57-4.27-4.57c-0.68,0-0.73,0.45-0.73,0.58V78.7c0,1.08,0.2,2.49,0.61,4.21C51.93,89.61,56.34,93,62.71,93
				h17.97L81,92.68v-0.12C81,89.91,79.53,88.38,76.58,88z"/>
		</g>
	</g>
</g>
</svg>
